<svg width="540" height="382" viewBox="0 0 540 382" fill="none" xmlns="http://www.w3.org/2000/svg">
<path d="M181.033 202.639C186.588 195.976 194.816 192.123 203.491 192.123H443.139C466.93 192.123 480.762 219.022 466.921 238.373L373.51 368.977C368.02 376.653 359.164 381.207 349.727 381.207H94.609C69.8156 381.207 56.2739 352.287 72.1502 333.244L181.033 202.639Z" fill="#1D3557"/>
<path d="M173.682 170.784C179.334 164.205 187.617 160.478 196.292 160.61L435.544 164.245C459.333 164.606 472.771 191.712 458.65 210.851L363.507 339.804C357.906 347.396 348.984 351.815 339.549 351.672L84.8531 347.802C60.0627 347.425 46.9444 318.303 63.0963 299.503L173.682 170.784Z" fill="white"/>
<path d="M154.465 130.246C160.02 123.744 168.143 120 176.695 120H426.719C450.667 120 464.459 147.211 450.302 166.526L353.141 299.079C347.633 306.593 338.874 311.033 329.558 311.033H63.4413C38.482 311.033 24.9975 281.776 41.2108 262.799L154.465 130.246Z" fill="#1D3557"/>
<rect x="32.1641" y="283.468" width="30.2448" height="98.9836" rx="9.74659" transform="rotate(-24.1976 32.1641 283.468)" fill="#1D3557"/>
<path d="M221.032 82.6395C226.588 75.9758 234.815 72.1232 243.491 72.1232H483.138C506.929 72.1232 520.761 99.0219 506.921 118.373L413.51 248.977C408.02 256.653 399.163 261.207 389.727 261.207H134.609C109.815 261.207 96.2734 232.287 112.15 213.244L221.032 82.6395Z" fill="#457B9D"/>
<path d="M213.682 50.7841C219.334 44.2054 227.617 40.4781 236.292 40.6099L475.544 44.2451C499.333 44.6066 512.771 71.7124 498.65 90.8511L403.507 219.805C397.906 227.396 388.984 231.815 379.549 231.672L124.853 227.802C100.063 227.425 86.9444 198.303 103.096 179.503L213.682 50.7841Z" fill="white"/>
<path d="M194.465 10.2459C200.02 3.74398 208.143 0 216.695 0H466.719C490.667 0 504.459 27.2116 490.302 46.526L393.141 179.08C387.633 186.594 378.874 191.033 369.558 191.033H103.441C78.482 191.033 64.9975 161.776 81.2108 142.8L194.465 10.2459Z" fill="#457B9D"/>
<path d="M148.188 208.575H193.997V244.638L148.188 228.366V208.575Z" fill="#E63946"/>
<rect x="72.1636" y="163.468" width="30.2448" height="98.9836" rx="9.74659" transform="rotate(-24.1976 72.1636 163.468)" fill="#457B9D"/>
</svg>
