<svg width="530" height="383" viewBox="0 0 530 383" fill="none" xmlns="http://www.w3.org/2000/svg">
<path d="M112.966 50.5756C104.816 25.6295 123.405 0 149.649 0H383.483C409.685 0 428.27 25.5532 420.198 50.4804L349.591 268.514C344.436 284.432 329.61 295.216 312.877 295.216H220.88C204.185 295.216 189.382 284.479 184.197 268.609L112.966 50.5756Z" fill="#345B73"/>
<path d="M187.885 328.85C162.783 344.042 173.552 382.637 202.894 382.637H333.709C362.991 382.637 373.807 344.168 348.815 328.908C344.266 326.131 339.039 324.661 333.709 324.661H202.894C197.602 324.661 192.412 326.11 187.885 328.85Z" fill="#345B73"/>
<path d="M192.883 183.61C187.665 193.674 176.23 201.602 158.651 204.18C141.138 206.749 119.302 203.538 97.86 192.856C76.4178 182.174 60.9006 166.778 52.6947 151.397C44.4577 135.958 44.2511 122.231 49.4696 112.166C54.6882 102.102 66.1233 94.1741 83.7024 91.5959C101.215 89.0274 123.051 92.2385 144.493 102.92C165.935 113.602 181.452 128.999 189.658 144.379C197.895 159.818 198.102 173.545 192.883 183.61Z" stroke="#345B73" stroke-width="38.5911"/>
<path d="M337.116 182.867C342.334 192.932 353.769 200.86 371.348 203.438C388.861 206.006 410.697 202.795 432.139 192.113C453.581 181.432 469.098 166.035 477.304 150.654C485.541 135.216 485.748 121.488 480.529 111.424C475.311 101.359 463.876 93.4314 446.297 90.8532C428.784 88.2847 406.948 91.4958 385.506 102.178C364.064 112.859 348.547 128.256 340.341 143.637C332.104 159.075 331.897 172.803 337.116 182.867Z" stroke="#345B73" stroke-width="38.5911"/>
<path d="M127.416 50.5279C119.306 25.5916 137.893 0.00195312 164.115 0.00195312H378.849C405.029 0.00195312 423.611 25.5158 415.579 50.4331L350.269 253.036C345.13 268.98 330.291 279.787 313.539 279.787H230.002C213.287 279.787 198.473 269.026 193.303 253.131L127.416 50.5279Z" fill="#457B9D"/>
<path d="M197.201 311.692C173.465 326.123 183.694 362.638 211.473 362.638H334.753C362.475 362.638 372.748 326.242 349.116 311.748C344.794 309.097 339.823 307.694 334.753 307.694H211.473C206.439 307.694 201.502 309.077 197.201 311.692Z" fill="#457B9D"/>
<path d="M201.001 173.531C196.262 182.713 185.811 190.081 169.475 192.488C153.201 194.886 132.833 191.894 112.789 181.863C92.7449 171.832 78.2849 157.394 70.6595 143.036C63.005 128.623 62.8896 115.967 67.6289 106.784C72.3682 97.6021 82.8192 90.2337 99.1552 87.8268C115.429 85.4291 135.797 88.4208 155.841 98.452C175.885 108.483 190.345 122.921 197.971 137.279C205.625 151.692 205.741 164.349 201.001 173.531Z" stroke="#457B9D" stroke-width="38.5911"/>
<path d="M338.995 172.826C343.735 182.008 354.186 189.377 370.522 191.783C386.795 194.181 407.163 191.189 427.207 181.158C447.252 171.127 461.712 156.689 469.337 142.331C476.992 127.918 477.107 115.262 472.368 106.079C467.628 96.8973 457.177 89.5289 440.841 87.122C424.568 84.7243 404.2 87.7159 384.156 97.7471C364.111 107.778 349.651 122.216 342.026 136.574C334.371 150.987 334.256 163.644 338.995 172.826Z" stroke="#457B9D" stroke-width="38.5911"/>
<rect width="38.8293" height="239.63" rx="19.4146" transform="matrix(0.958567 0.284868 -0.284871 0.958566 348.262 30)" fill="#7CA2BA"/>
<path d="M127.416 50.5279C119.306 25.5916 137.893 0.00195312 164.115 0.00195312H378.849C405.029 0.00195312 423.611 25.5158 415.579 50.4331L350.269 253.036C345.13 268.98 330.291 279.787 313.539 279.787H230.002C213.287 279.787 198.473 269.026 193.303 253.131L127.416 50.5279Z" fill="#457B9D"/>
<path d="M197.201 311.692C173.465 326.123 183.694 362.638 211.473 362.638H334.753C362.475 362.638 372.748 326.242 349.116 311.748C344.794 309.097 339.823 307.694 334.753 307.694H211.473C206.439 307.694 201.502 309.077 197.201 311.692Z" fill="#457B9D"/>
<path d="M201.001 173.531C196.262 182.713 185.811 190.081 169.475 192.488C153.201 194.886 132.833 191.894 112.789 181.863C92.7449 171.832 78.2849 157.394 70.6595 143.036C63.005 128.623 62.8896 115.967 67.6289 106.784C72.3682 97.6021 82.8192 90.2337 99.1552 87.8268C115.429 85.4291 135.797 88.4208 155.841 98.452C175.885 108.483 190.345 122.921 197.971 137.279C205.625 151.692 205.741 164.349 201.001 173.531Z" stroke="#457B9D" stroke-width="38.5911"/>
<path d="M338.995 172.826C343.735 182.008 354.186 189.377 370.522 191.783C386.795 194.181 407.163 191.189 427.207 181.158C447.252 171.127 461.712 156.689 469.337 142.331C476.992 127.918 477.107 115.262 472.368 106.079C467.628 96.8973 457.177 89.5289 440.841 87.122C424.568 84.7243 404.2 87.7159 384.156 97.7471C364.111 107.778 349.651 122.216 342.026 136.574C334.371 150.987 334.256 163.644 338.995 172.826Z" stroke="#457B9D" stroke-width="38.5911"/>
<rect width="38.8293" height="239.63" rx="19.4146" transform="matrix(0.958567 0.284868 -0.284871 0.958566 348.262 30)" fill="#7CA2BA"/>
</svg>
