<svg width="506" height="579" viewBox="0 0 506 579" fill="none" xmlns="http://www.w3.org/2000/svg">
<path fill-rule="evenodd" clip-rule="evenodd" d="M280.831 121.693C288.184 137.516 291.433 158.025 288.904 179.871C286.304 202.322 278.084 222.003 266.847 235.791C283.256 234.833 299.036 244.622 304.956 260.857C307.904 268.944 307.951 277.38 305.627 285.026C325.425 289.236 344.217 299.009 359.469 314.215C395.913 266.014 441.37 212.538 455.447 222.085C472.678 233.77 437.431 336.172 408.768 393.861C414.71 429.161 403.058 466.653 374.521 492.422C358.886 506.539 340.267 515.258 320.95 518.693C318.067 520.026 315.002 521.081 311.781 521.816L178.052 552.353C153.117 558.047 128.287 542.449 122.593 517.514C120.469 508.212 121.307 498.926 124.488 490.641C124.969 486.701 125.932 482.755 127.412 478.879L173.815 357.28C175.531 352.783 177.828 348.679 180.587 345.02C164.342 345.772 148.798 336.016 142.933 319.93C136.913 303.419 142.99 285.448 156.641 275.725C121.705 271.578 82.1231 258.524 63.7041 243.497C60.6226 246.71 56.042 248.371 51.331 247.526C43.85 246.184 38.8732 239.032 40.2151 231.551L42.0285 221.441C43.3705 213.96 50.5229 208.983 58.0039 210.325C58.9719 210.499 59.898 210.77 60.7739 211.126C73.6547 196.066 101.229 179.977 128.544 169.869C128.756 165.847 129.311 161.787 130.23 157.725L132.334 148.422C133.511 143.222 135.223 138.282 137.401 133.647C146.792 88.8733 175.792 29.7816 188.89 31.2983C197.564 32.3027 203.735 60.4021 206.182 92.5039C210.188 92.7186 214.231 93.2727 218.276 94.1877C218.435 94.2237 218.594 94.2602 218.753 94.2973C231.407 56.3268 252.037 18.8153 262.506 20.0276C274.786 21.4496 282.051 77.1839 280.831 121.693Z" fill="#457B9D"/>
<path d="M374.78 406.484C347.456 446.776 309.318 468.598 289.598 455.224C269.878 441.851 276.043 398.346 303.367 358.054C330.692 317.762 414.672 202.078 434.392 215.452C454.112 228.825 402.105 366.192 374.78 406.484Z" fill="#A8DADC"/>
<ellipse cx="222.972" cy="168.998" rx="52.1662" ry="79.6984" transform="rotate(6.60524 222.972 168.998)" fill="#A8DADC"/>
<rect x="107.542" y="220.941" width="146.866" height="137.725" rx="68.8627" transform="rotate(-77.2547 107.542 220.941)" fill="#A8DADC"/>
<rect x="103.014" y="506.147" width="220.214" height="95.4886" rx="47.7443" transform="rotate(-69.1126 103.014 506.147)" fill="#A8DADC"/>
<rect x="292.589" y="360.861" width="23.9118" height="20.5049" rx="10.2524" transform="rotate(87.0533 292.589 360.861)" fill="#457B9D"/>
<path d="M190.594 265.906C149.015 276.2 55.8838 249.541 49.3224 223.038C42.7609 196.535 132.382 151.335 172.1 155.935C209.36 135.333 252.705 158.781 259.266 185.285C265.827 211.788 232.172 255.613 190.594 265.906Z" fill="#A8DADC"/>
<path d="M115.417 498.565C109.96 474.669 124.908 450.874 148.804 445.417L276.958 416.153C300.853 410.697 324.648 425.645 330.105 449.541C335.561 473.436 320.614 497.231 296.718 502.688L168.564 531.952C144.668 537.408 120.873 522.46 115.417 498.565Z" fill="#A8DADC"/>
<path d="M195.043 151.911C190.026 195.238 170.862 224.237 156.95 222.626C143.038 221.015 122.372 187.404 127.389 144.077C132.406 100.751 165.04 31.0083 178.952 32.6192C192.865 34.2302 200.06 108.585 195.043 151.911Z" fill="#A8DADC"/>
<path d="M195.043 151.911C190.026 195.238 170.862 224.237 156.95 222.626C143.038 221.015 122.372 187.404 127.389 144.077C132.406 100.751 165.04 31.0083 178.952 32.6192C192.865 34.2302 200.06 108.585 195.043 151.911Z" fill="#A8DADC"/>
<path d="M265.588 141.112C260.571 184.439 241.408 213.438 227.496 211.827C213.583 210.216 192.918 176.605 197.935 133.278C202.952 89.9517 235.586 20.2092 249.498 21.8202C263.41 23.4311 270.605 97.7858 265.588 141.112Z" fill="#A8DADC"/>
<path d="M265.588 141.112C260.571 184.439 241.408 213.438 227.496 211.827C213.583 210.216 192.918 176.605 197.935 133.278C202.952 89.9517 235.586 20.2092 249.498 21.8202C263.41 23.4311 270.605 97.7858 265.588 141.112Z" fill="#A8DADC"/>
<rect x="276.605" y="230.642" width="234.774" height="207.785" rx="103.892" transform="rotate(47.9183 276.605 230.642)" fill="#A8DADC"/>
<rect x="147.451" y="343.616" width="73.2296" height="165.266" rx="36.6148" transform="rotate(-110.031 147.451 343.616)" fill="#E63946"/>
<rect x="166.972" y="287.225" width="73.2296" height="186.967" rx="36.6148" transform="rotate(-6.53977 166.972 287.225)" fill="#E63946"/>
<rect width="71.1426" height="43.7416" rx="21.8708" transform="matrix(0.173089 -0.984906 0.983625 0.180227 136.579 196.938)" fill="white"/>
<path d="M126.857 260.912C125.199 258.835 125.656 255.787 127.85 254.288L144.492 242.92C145.407 242.295 146.273 241.599 147.081 240.84L160.448 228.287C162.389 226.464 165.473 226.684 167.135 228.765C168.611 230.614 168.43 233.284 166.717 234.916L152.921 248.053C151.874 249.05 150.744 249.955 149.543 250.76L132.969 261.857C130.996 263.178 128.339 262.767 126.857 260.912Z" fill="#457B9D"/>
<rect width="43.463" height="28.6816" rx="14.3408" transform="matrix(0.149379 -0.98878 0.987671 0.156546 138.71 191.195)" fill="#0F3352"/>
<rect width="14.4877" height="9.56054" rx="4.78027" transform="matrix(0.149379 -0.98878 0.987671 0.156546 160.407 167.582)" fill="white"/>
<rect x="34.1445" y="237.505" width="36.2191" height="26.3762" rx="13.1881" transform="rotate(-79.8308 34.1445 237.505)" fill="#0F3352"/>
</svg>
